REM DIRINDEX 1\2,1\3,1\4,1\6,1\5\7,1\5\8
REM DIRNAME cjc114,folder01,folder02,folder03,folder04,folder05,folder06,folder07
TITLE ""
FILE "DB4500_5th_4B_31.mp3" MP3
  TRACK 01 AUDIO
    TITLE "0:"
    INDEX 01 00:00:00
  TRACK 02 AUDIO
    TITLE "2:cjc114_2713"
    INDEX 01 00:00:05
  TRACK 03 AUDIO
    TITLE "0:"
    INDEX 01 00:01:38
  TRACK 04 AUDIO
    TITLE "3:cjc114_2714"
    INDEX 01 00:01:62
  TRACK 05 AUDIO
    TITLE "0:"
    INDEX 01 00:03:02
  TRACK 06 AUDIO
    TITLE "4:cjc114_2715"
    INDEX 01 00:03:27
  TRACK 07 AUDIO
    TITLE "0:"
    INDEX 01 00:07:11
  TRACK 08 AUDIO
    TITLE "2:cjc114_2716"
    INDEX 01 00:07:58
  TRACK 09 AUDIO
    TITLE "0:"
    INDEX 01 00:09:02
  TRACK 10 AUDIO
    TITLE "3:cjc114_2717"
    INDEX 01 00:09:28
  TRACK 11 AUDIO
    TITLE "0:"
    INDEX 01 00:10:37
  TRACK 12 AUDIO
    TITLE "4:cjc114_2718"
    INDEX 01 00:10:61
  TRACK 13 AUDIO
    TITLE "0:"
    INDEX 01 00:14:62
  TRACK 14 AUDIO
    TITLE "2:cjc114_2719"
    INDEX 01 00:15:40
  TRACK 15 AUDIO
    TITLE "0:"
    INDEX 01 00:18:29
  TRACK 16 AUDIO
    TITLE "3:cjc114_2720"
    INDEX 01 00:18:54
  TRACK 17 AUDIO
    TITLE "0:"
    INDEX 01 00:20:34
  TRACK 18 AUDIO
    TITLE "4:cjc114_2721"
    INDEX 01 00:20:59
  TRACK 19 AUDIO
    TITLE "0:"
    INDEX 01 00:24:10
  TRACK 20 AUDIO
    TITLE "2:cjc114_2722"
    INDEX 01 00:24:61
  TRACK 21 AUDIO
    TITLE "0:"
    INDEX 01 00:25:74
  TRACK 22 AUDIO
    TITLE "3:cjc114_2723"
    INDEX 01 00:26:18
  TRACK 23 AUDIO
    TITLE "0:"
    INDEX 01 00:27:30
  TRACK 24 AUDIO
    TITLE "4:cjc114_2724"
    INDEX 01 00:27:55
  TRACK 25 AUDIO
    TITLE "0:"
    INDEX 01 00:31:24
  TRACK 26 AUDIO
    TITLE "2:cjc114_2725"
    INDEX 01 00:32:00
  TRACK 27 AUDIO
    TITLE "0:"
    INDEX 01 00:32:70
  TRACK 28 AUDIO
    TITLE "3:cjc114_2726"
    INDEX 01 00:33:21
  TRACK 29 AUDIO
    TITLE "0:"
    INDEX 01 00:34:18
  TRACK 30 AUDIO
    TITLE "4:cjc114_2727"
    INDEX 01 00:34:43
  TRACK 31 AUDIO
    TITLE "0:"
    INDEX 01 00:38:61
  TRACK 32 AUDIO
    TITLE "2:cjc114_2728"
    INDEX 01 00:39:35
  TRACK 33 AUDIO
    TITLE "0:"
    INDEX 01 00:40:46
  TRACK 34 AUDIO
    TITLE "3:cjc114_2729"
    INDEX 01 00:40:72
  TRACK 35 AUDIO
    TITLE "0:"
    INDEX 01 00:42:27
  TRACK 36 AUDIO
    TITLE "4:cjc114_2730"
    INDEX 01 00:42:55
  TRACK 37 AUDIO
    TITLE "0:"
    INDEX 01 00:45:14
  TRACK 38 AUDIO
    TITLE "2:cjc114_2731"
    INDEX 01 00:45:63
  TRACK 39 AUDIO
    TITLE "0:"
    INDEX 01 00:47:17
  TRACK 40 AUDIO
    TITLE "3:cjc114_2732"
    INDEX 01 00:47:38
  TRACK 41 AUDIO
    TITLE "0:"
    INDEX 01 00:48:36
  TRACK 42 AUDIO
    TITLE "4:cjc114_2733"
    INDEX 01 00:48:59
  TRACK 43 AUDIO
    TITLE "0:"
    INDEX 01 00:52:06
  TRACK 44 AUDIO
    TITLE "2:cjc114_2734"
    INDEX 01 00:52:57
  TRACK 45 AUDIO
    TITLE "0:"
    INDEX 01 00:54:03
  TRACK 46 AUDIO
    TITLE "3:cjc114_2735"
    INDEX 01 00:54:27
  TRACK 47 AUDIO
    TITLE "0:"
    INDEX 01 00:55:44
  TRACK 48 AUDIO
    TITLE "4:cjc114_2736"
    INDEX 01 00:56:08
  TRACK 49 AUDIO
    TITLE "0:"
    INDEX 01 00:59:00
  TRACK 50 AUDIO
    TITLE "2:cjc114_2737"
    INDEX 01 00:59:53
  TRACK 51 AUDIO
    TITLE "0:"
    INDEX 01 01:00:68
  TRACK 52 AUDIO
    TITLE "3:cjc114_2738"
    INDEX 01 01:01:23
  TRACK 53 AUDIO
    TITLE "0:"
    INDEX 01 01:02:50
  TRACK 54 AUDIO
    TITLE "4:cjc114_2739"
    INDEX 01 01:03:04
  TRACK 55 AUDIO
    TITLE "0:"
    INDEX 01 01:07:08
  TRACK 56 AUDIO
    TITLE "2:cjc114_2740"
    INDEX 01 01:07:63
  TRACK 57 AUDIO
    TITLE "0:"
    INDEX 01 01:08:66
  TRACK 58 AUDIO
    TITLE "3:cjc114_2741"
    INDEX 01 01:09:18
  TRACK 59 AUDIO
    TITLE "0:"
    INDEX 01 01:10:30
  TRACK 60 AUDIO
    TITLE "4:cjc114_2742"
    INDEX 01 01:10:57
  TRACK 61 AUDIO
    TITLE "0:"
    INDEX 01 01:15:56
  TRACK 62 AUDIO
    TITLE "2:cjc114_2743"
    INDEX 01 01:16:34
  TRACK 63 AUDIO
    TITLE "0:"
    INDEX 01 01:17:57
  TRACK 64 AUDIO
    TITLE "3:cjc114_2744"
    INDEX 01 01:18:11
  TRACK 65 AUDIO
    TITLE "0:"
    INDEX 01 01:19:56
  TRACK 66 AUDIO
    TITLE "4:cjc114_2745"
    INDEX 01 01:20:08
  TRACK 67 AUDIO
    TITLE "0:"
    INDEX 01 01:26:25
  TRACK 68 AUDIO
    TITLE "2:cjc114_2746"
    INDEX 01 01:27:03
  TRACK 69 AUDIO
    TITLE "0:"
    INDEX 01 01:28:20
  TRACK 70 AUDIO
    TITLE "3:cjc114_2747"
    INDEX 01 01:28:49
  TRACK 71 AUDIO
    TITLE "0:"
    INDEX 01 01:30:11
  TRACK 72 AUDIO
    TITLE "4:cjc114_2748"
    INDEX 01 01:30:40
  TRACK 73 AUDIO
    TITLE "0:"
    INDEX 01 01:34:34
  TRACK 74 AUDIO
    TITLE "2:cjc114_2749"
    INDEX 01 01:35:12
  TRACK 75 AUDIO
    TITLE "0:"
    INDEX 01 01:36:35
  TRACK 76 AUDIO
    TITLE "3:cjc114_2750"
    INDEX 01 01:36:64
  TRACK 77 AUDIO
    TITLE "0:"
    INDEX 01 01:38:04
  TRACK 78 AUDIO
    TITLE "4:cjc114_2751"
    INDEX 01 01:38:32
  TRACK 79 AUDIO
    TITLE "0:"
    INDEX 01 01:43:35
  TRACK 80 AUDIO
    TITLE "2:cjc114_2752"
    INDEX 01 01:44:15
  TRACK 81 AUDIO
    TITLE "0:"
    INDEX 01 01:45:24
  TRACK 82 AUDIO
    TITLE "3:cjc114_2753"
    INDEX 01 01:45:53
  TRACK 83 AUDIO
    TITLE "0:"
    INDEX 01 01:48:12
  TRACK 84 AUDIO
    TITLE "4:cjc114_2754"
    INDEX 01 01:48:38
  TRACK 85 AUDIO
    TITLE "0:"
    INDEX 01 01:53:18
